name analog
datacolumns 19
datarows 32
range 0.0 0.0155
endheader
time	ground_force_vx	ground_force_vy	ground_force_vz	ground_force_px	ground_force_py	ground_force_pz	l_ground_force_vx	l_ground_force_vy	l_ground_force_vz	l_ground_force_px	l_ground_force_py	l_ground_force_pz	ground_torque_x	ground_torque_y	ground_torque_z	l_ground_torque_x	l_ground_torque_y	l_ground_torque_z
0.0	-0.0	-0.0	-0.0	-1.4055992364883425	39.01736831665039	-471.4034118652344	1.0645294189453125	-39.3031120300293	-429.1945190429688	-0.0	-0.0	-0.0	-0.0	-0.0	-0.0	108502.1171875	5112.49365234375	-3724.636962890625
0.0005	-0.0	-0.0	-0.0	-1.3155969381332395	39.06269073486328	-469.8186340332031	0.9097325205802916	-39.038185119628906	-429.1087341308594	-0.0	-0.0	-0.0	-0.0	-0.0	-0.0	108470.8046875	5118.30419921875	-3754.14453125
0.001	-0.0	-0.0	-0.0	-1.3356027603149414	38.90605926513672	-468.401123046875	1.153240203857422	-39.47919464111328	-429.7153930664063	-0.0	-0.0	-0.0	-0.0	-0.0	-0.0	108725.96875	5408.4169921875	-3650.418212890625
0.0015	-0.0	-0.0	-0.0	-1.5377973318099976	39.10416030883789	-469.987060546875	0.9087094664573668	-39.41374588012695	-430.7650451660156	-0.0	-0.0	-0.0	-0.0	-0.0	-0.0	108245.828125	5133.63916015625	-3702.152587890625
0.002	-0.0	-0.0	-0.0	-1.4046239852905271	39.149208068847656	-470.1725463867188	0.9982681274414062	-39.25952911376953	-430.9371948242188	-0.0	-0.0	-0.0	-0.0	-0.0	-0.0	108551.84375	5414.8798828125	-3776.2314453125
0.0025	-0.0	-0.0	-0.0	-1.2925846576690674	38.972755432128906	-470.33782958984375	1.3306617736816406	-39.72111892700195	-430.2433166503906	-0.0	-0.0	-0.0	-0.0	-0.0	-0.0	108872.7734375	5460.96240234375	-3672.861572265625
0.003	-0.0	-0.0	-0.0	-1.4273681640625	39.32709884643555	-471.051513671875	0.8871078491210938	-39.413944244384766	-429.9006652832031	-0.0	-0.0	-0.0	-0.0	-0.0	-0.0	108640.75	5291.1728515625	-3747.04931640625
0.0035	-0.0	-0.0	-0.0	-1.4502962827682495	38.952484130859375	-469.3662109375	1.0418970584869385	-39.47979736328125	-431.469482421875	-0.0	-0.0	-0.0	-0.0	-0.0	-0.0	108630.03125	5054.865234375	-3658.57177734375
0.004	-0.0	-0.0	-0.0	-1.294887661933899	38.949989318847656	-470.3447265625	0.998492956161499	-39.54751968383789	-432.4203796386719	-0.0	-0.0	-0.0	-0.0	-0.0	-0.0	108832.578125	5299.07177734375	-3642.84765625
0.0045000000000000005	-0.0	-0.0	-0.0	-1.674940586090088	39.52485275268555	-469.2291564941406	1.0645294189453125	-39.74475860595703	-433.0375671386719	-0.0	-0.0	-0.0	-0.0	-0.0	-0.0	109155.546875	5389.4345703125	-3702.12548828125
0.005	-0.0	-0.0	-0.0	-1.8766582012176516	38.99617004394531	-470.9718627929688	0.8642926216125488	-39.74222183227539	-433.1075134277344	-0.0	-0.0	-0.0	-0.0	-0.0	-0.0	109287.390625	5203.82373046875	-3701.37353515625
0.0055	-0.0	-0.0	-0.0	-1.9129180908203125	39.108516693115234	-469.2844848632813	0.9758186340332032	-39.72200393676758	-433.9954833984375	-0.0	-0.0	-0.0	-0.0	-0.0	-0.0	109565.9140625	5283.349609375	-3805.48388671875
0.006	-0.0	-0.0	-0.0	-1.5435389280319214	38.93049621582031	-470.9433288574219	1.0247281789779663	-39.89856719970703	-433.9954833984375	-0.0	-0.0	-0.0	-0.0	-0.0	-0.0	109381.84375	5299.103515625	-3717.410400390625
0.006500000000000001	-0.0	-0.0	-0.0	-1.7182761430740356	39.217376708984375	-472.2629089355469	0.6899119019508362	-39.87564468383789	-433.73675537109375	-0.0	-0.0	-0.0	-0.0	-0.0	-0.0	109903.84375	5252.40625	-3614.3544921875
0.007	-0.0	-0.0	-0.0	-1.7099238634109497	39.23650360107422	-470.9404296875	1.0219357013702393	-39.74475860595703	-435.4689636230469	-0.0	-0.0	-0.0	-0.0	-0.0	-0.0	109555.546875	5256.0322265625	-3672.2880859375
0.0075	-0.0	-0.0	-0.0	-1.5867745876312256	39.28313064575195	-470.69622802734375	0.64776611328125	-39.96372985839844	-435.315673828125	-0.0	-0.0	-0.0	-0.0	-0.0	-0.0	109877.765625	5095.8681640625	-3547.435302734375
0.008	-0.0	-0.0	-0.0	-1.469658136367798	39.24081802368164	-471.40234375	1.457824945449829	-39.7639045715332	-435.9235229492188	-0.0	-0.0	-0.0	-0.0	-0.0	-0.0	109964.5703125	5340.86865234375	-3628.076171875
0.0085	-0.0	-0.0	-0.0	-1.9998095035552976	39.08121109008789	-471.6619873046875	1.045542597770691	-39.76366424560547	-434.4360961914063	-0.0	-0.0	-0.0	-0.0	-0.0	-0.0	109702.296875	5605.869140625	-3598.705078125
0.009000000000000001	-0.0	-0.0	-0.0	-1.45616614818573	39.526737213134766	-470.6748352050781	1.106635808944702	-40.11677169799805	-437.2681579589844	-0.0	-0.0	-0.0	-0.0	-0.0	-0.0	109755.125	5276.1337890625	-3732.99169921875
0.0095	-0.0	-0.0	-0.0	-1.6530770063400269	39.33013153076172	-471.2144165039063	0.9104520082473756	-39.83772659301758	-436.9540710449219	-0.0	-0.0	-0.0	-0.0	-0.0	-0.0	109986.078125	5363.15478515625	-3658.14794921875
0.01	-0.0	-0.0	-0.0	-1.564026951789856	38.99739456176758	-468.43304443359375	1.0176814794540403	-39.721439361572266	-434.4367980957031	-0.0	-0.0	-0.0	-0.0	-0.0	-0.0	109752.1171875	5545.9169921875	-3681.540771484375
0.0105	-0.0	-0.0	-0.0	-1.4273681640625	39.0687141418457	-469.3052368164063	0.8453295826911926	-39.80971908569336	-435.2997131347656	-0.0	-0.0	-0.0	-0.0	-0.0	-0.0	109656.734375	5563.9462890625	-3733.209228515625
0.011	-0.0	-0.0	-0.0	-1.7480089664459229	39.21120834350586	-468.5054016113281	0.8400157690048218	-39.72676849365234	-434.088134765625	-0.0	-0.0	-0.0	-0.0	-0.0	-0.0	109589.3515625	5050.35302734375	-3776.826171875
0.0115	-0.0	-0.0	-0.0	-2.164960622787476	38.86727523803711	-466.55072021484375	0.6209754943847656	-39.52680587768555	-435.2287292480469	-0.0	-0.0	-0.0	-0.0	-0.0	-0.0	109755.5078125	5248.56103515625	-3822.38330078125
0.012	-0.0	-0.0	-0.0	-1.6536909341812134	39.01518630981445	-467.5154113769531	0.7274488210678101	-39.43270492553711	-432.8081665039063	-0.0	-0.0	-0.0	-0.0	-0.0	-0.0	109550.5	5502.0029296875	-3782.77099609375
0.0125	-0.0	-0.0	-0.0	-1.9557173252105715	38.59346771240234	-465.46380615234375	1.017071008682251	-39.721134185791016	-434.69378662109375	-0.0	-0.0	-0.0	-0.0	-0.0	-0.0	109405.0	5534.05712890625	-3863.61572265625
0.013000000000000001	-0.0	-0.0	-0.0	-1.9626312255859373	39.03911590576172	-465.4524536132813	0.8395276665687561	-39.46895217895508	-432.947998046875	-0.0	-0.0	-0.0	-0.0	-0.0	-0.0	109415.6640625	5694.12353515625	-3879.5068359375
0.0135	-0.0	-0.0	-0.0	-1.8324795961380005	38.8535385131836	-464.564697265625	0.5428608655929565	-39.97940826416016	-434.8970336914063	-0.0	-0.0	-0.0	-0.0	-0.0	-0.0	109419.5	5523.58251953125	-3847.9423828125
0.014	-0.0	-0.0	-0.0	-2.19839859008789	38.49669647216797	-464.3660278320313	0.5970635414123535	-39.67333984375	-434.8820190429688	-0.0	-0.0	-0.0	-0.0	-0.0	-0.0	109204.578125	5542.36083984375	-3925.3056640625
0.0145	-0.0	-0.0	-0.0	-1.8976781368255613	38.60207748413086	-463.9482727050781	0.4195996522903442	-39.62551498413086	-433.9954833984375	-0.0	-0.0	-0.0	-0.0	-0.0	-0.0	109074.5859375	5659.79833984375	-3806.763427734375
0.015	-0.0	-0.0	-0.0	-1.9545739889144895	38.034366607666016	-463.5647888183594	0.7262949347496033	-39.44672393798828	-432.7296142578125	-0.0	-0.0	-0.0	-0.0	-0.0	-0.0	109106.703125	5739.47705078125	-3952.337158203125
0.0155	-0.0	-0.0	-0.0	-1.9382323026657104	38.4555778503418	-464.141845703125	0.4599799215793609	-39.47979736328125	-433.4221801757813	-0.0	-0.0	-0.0	-0.0	-0.0	-0.0	109253.2734375	5693.486328125	-3806.69775390625
